<svg width="958" height="421" viewBox="0 0 958 421" fill="none" xmlns="http://www.w3.org/2000/svg">
<path d="M508.657 368.323V400.261H498.186V346.47H508.237V355.225H508.902C510.139 352.377 512.077 350.089 514.715 348.361C517.377 346.634 520.727 345.77 524.766 345.77C528.432 345.77 531.642 346.54 534.397 348.081C537.152 349.599 539.288 351.863 540.805 354.875C542.323 357.887 543.082 361.611 543.082 366.047V400.261H532.611V367.307C532.611 363.408 531.595 360.362 529.564 358.167C527.533 355.949 524.743 354.84 521.194 354.84C518.766 354.84 516.607 355.365 514.715 356.416C512.848 357.467 511.365 359.008 510.268 361.039C509.194 363.046 508.657 365.475 508.657 368.323ZM598.877 401.452C595.469 401.452 592.387 400.821 589.632 399.561C586.877 398.277 584.694 396.421 583.083 393.992C581.496 391.564 580.702 388.588 580.702 385.062C580.702 382.027 581.286 379.529 582.453 377.568C583.62 375.607 585.196 374.054 587.181 372.91C589.165 371.766 591.383 370.903 593.834 370.319C596.286 369.735 598.784 369.292 601.329 368.988C604.55 368.615 607.165 368.311 609.173 368.078C611.181 367.821 612.64 367.412 613.551 366.852C614.461 366.292 614.916 365.381 614.916 364.12V363.875C614.916 360.817 614.053 358.447 612.325 356.766C610.621 355.085 608.076 354.245 604.691 354.245C601.165 354.245 598.387 355.027 596.356 356.591C594.348 358.132 592.959 359.848 592.188 361.739L582.348 359.498C583.515 356.229 585.219 353.591 587.461 351.583C589.725 349.552 592.329 348.081 595.27 347.171C598.212 346.237 601.305 345.77 604.55 345.77C606.698 345.77 608.975 346.027 611.379 346.54C613.807 347.031 616.072 347.941 618.173 349.272C620.298 350.603 622.037 352.505 623.391 354.98C624.745 357.432 625.422 360.618 625.422 364.541V400.261H615.197V392.907H614.776C614.099 394.261 613.084 395.592 611.73 396.899C610.375 398.207 608.636 399.292 606.512 400.156C604.387 401.02 601.842 401.452 598.877 401.452ZM601.154 393.047C604.049 393.047 606.523 392.475 608.578 391.331C610.656 390.187 612.232 388.693 613.305 386.848C614.403 384.981 614.951 382.985 614.951 380.86V373.926C614.578 374.3 613.854 374.65 612.78 374.977C611.73 375.28 610.527 375.549 609.173 375.782C607.819 375.992 606.5 376.191 605.216 376.377C603.932 376.541 602.858 376.681 601.994 376.798C599.963 377.054 598.107 377.486 596.426 378.093C594.768 378.7 593.437 379.576 592.434 380.72C591.453 381.841 590.963 383.335 590.963 385.202C590.963 387.794 591.92 389.755 593.834 391.086C595.749 392.393 598.189 393.047 601.154 393.047ZM690.577 346.47V354.875H661.195V346.47H690.577ZM669.075 333.583H679.546V384.467C679.546 386.498 679.849 388.027 680.456 389.055C681.063 390.059 681.845 390.747 682.803 391.121C683.783 391.471 684.846 391.646 685.989 391.646C686.83 391.646 687.565 391.588 688.196 391.471C688.826 391.354 689.316 391.261 689.667 391.191L691.558 399.841C690.951 400.074 690.087 400.308 688.966 400.541C687.846 400.798 686.445 400.938 684.764 400.961C682.009 401.008 679.441 400.518 677.059 399.491C674.678 398.463 672.752 396.876 671.281 394.728C669.81 392.58 669.075 389.883 669.075 386.638V333.583ZM728.259 400.261V346.47H738.73V400.261H728.259ZM733.547 338.171C731.726 338.171 730.161 337.564 728.854 336.35C727.57 335.112 726.928 333.641 726.928 331.937C726.928 330.209 727.57 328.739 728.854 327.525C730.161 326.287 731.726 325.668 733.547 325.668C735.368 325.668 736.92 326.287 738.204 327.525C739.512 328.739 740.165 330.209 740.165 331.937C740.165 333.641 739.512 335.112 738.204 336.35C736.92 337.564 735.368 338.171 733.547 338.171ZM801.573 401.347C796.53 401.347 792.129 400.191 788.37 397.88C784.612 395.568 781.693 392.335 779.615 388.179C777.538 384.023 776.499 379.167 776.499 373.611C776.499 368.031 777.538 363.152 779.615 358.972C781.693 354.793 784.612 351.548 788.37 349.237C792.129 346.926 796.53 345.77 801.573 345.77C806.616 345.77 811.017 346.926 814.776 349.237C818.534 351.548 821.453 354.793 823.531 358.972C825.608 363.152 826.647 368.031 826.647 373.611C826.647 379.167 825.608 384.023 823.531 388.179C821.453 392.335 818.534 395.568 814.776 397.88C811.017 400.191 806.616 401.347 801.573 401.347ZM801.608 392.557C804.877 392.557 807.585 391.693 809.733 389.965C811.881 388.238 813.468 385.938 814.495 383.066C815.546 380.195 816.071 377.031 816.071 373.576C816.071 370.144 815.546 366.992 814.495 364.12C813.468 361.225 811.881 358.902 809.733 357.151C807.585 355.4 804.877 354.525 801.608 354.525C798.316 354.525 795.585 355.4 793.413 357.151C791.265 358.902 789.666 361.225 788.616 364.12C787.588 366.992 787.075 370.144 787.075 373.576C787.075 377.031 787.588 380.195 788.616 383.066C789.666 385.938 791.265 388.238 793.413 389.965C795.585 391.693 798.316 392.557 801.608 392.557ZM874.905 368.323V400.261H864.434V346.47H874.485V355.225H875.15C876.387 352.377 878.325 350.089 880.963 348.361C883.625 346.634 886.975 345.77 891.014 345.77C894.679 345.77 897.89 346.54 900.645 348.081C903.399 349.599 905.536 351.863 907.053 354.875C908.571 357.887 909.33 361.611 909.33 366.047V400.261H898.859V367.307C898.859 363.408 897.843 360.362 895.812 358.167C893.781 355.949 890.991 354.84 887.442 354.84C885.014 354.84 882.854 355.365 880.963 356.416C879.096 357.467 877.613 359.008 876.516 361.039C875.442 363.046 874.905 365.475 874.905 368.323Z" fill="#E4B14D"/>
<path d="M202.362 73.32V294H171.76L59.5879 132.154H57.5406V294H24.2446V73.32H55.0622L167.342 235.382H169.389V73.32H202.362ZM478.67 297.34C463.153 297.34 449.612 293.784 438.047 286.673C426.481 279.561 417.501 269.612 411.108 256.825C404.715 244.038 401.518 229.096 401.518 211.999C401.518 194.83 404.715 179.817 411.108 166.958C417.501 154.1 426.481 144.114 438.047 137.003C449.612 129.891 463.153 126.335 478.67 126.335C494.186 126.335 507.727 129.891 519.293 137.003C530.859 144.114 539.838 154.1 546.231 166.958C552.625 179.817 555.822 194.83 555.822 211.999C555.822 229.096 552.625 244.038 546.231 256.825C539.838 269.612 530.859 279.561 519.293 286.673C507.727 293.784 494.186 297.34 478.67 297.34ZM478.777 270.294C488.835 270.294 497.167 267.636 503.776 262.32C510.385 257.004 515.27 249.929 518.431 241.093C521.664 232.257 523.28 222.523 523.28 211.892C523.28 201.332 521.664 191.634 518.431 182.798C515.27 173.89 510.385 166.743 503.776 161.355C497.167 155.967 488.835 153.273 478.777 153.273C468.649 153.273 460.244 155.967 453.563 161.355C446.954 166.743 442.033 173.89 438.801 182.798C435.64 191.634 434.06 201.332 434.06 211.892C434.06 222.523 435.64 232.257 438.801 241.093C442.033 249.929 446.954 257.004 453.563 262.32C460.244 267.636 468.649 270.294 478.777 270.294ZM591.784 294V128.49H622.71V155.428H624.757C628.205 146.305 633.844 139.194 641.674 134.093C649.505 128.921 658.879 126.335 669.798 126.335C680.861 126.335 690.128 128.921 697.599 134.093C705.141 139.265 710.709 146.377 714.301 155.428H716.025C719.976 146.593 726.261 139.553 734.882 134.309C743.502 128.993 753.774 126.335 765.699 126.335C780.713 126.335 792.961 131.04 802.443 140.451C811.997 149.861 816.775 164.049 816.775 183.013V294H784.556V186.031C784.556 174.824 781.503 166.707 775.397 161.678C769.291 156.65 762 154.135 753.523 154.135C743.035 154.135 734.882 157.368 729.063 163.833C723.244 170.227 720.335 178.452 720.335 188.509V294H688.224V183.983C688.224 175.004 685.423 167.784 679.819 162.325C674.216 156.865 666.925 154.135 657.945 154.135C651.839 154.135 646.2 155.752 641.028 158.984C635.928 162.145 631.797 166.563 628.636 172.238C625.547 177.913 624.003 184.486 624.003 191.957V294H591.784ZM859.957 294V128.49H892.175V294H859.957ZM876.228 102.952C870.625 102.952 865.812 101.085 861.789 97.3491C857.838 93.5418 855.862 89.0162 855.862 83.7721C855.862 78.4563 857.838 73.9306 861.789 70.1951C865.812 66.3878 870.625 64.4842 876.228 64.4842C881.831 64.4842 886.608 66.3878 890.559 70.1951C894.582 73.9306 896.593 78.4563 896.593 83.7721C896.593 89.0162 894.582 93.5418 890.559 97.3491C886.608 101.085 881.831 102.952 876.228 102.952Z" fill="#E4B14D"/>
<path d="M383.197 56.8487C383.999 56.7741 384.691 56.7286 385.463 57.0232C386.396 57.379 387.053 58.069 387.428 58.9667C388.724 62.0684 387.427 67.958 386.593 71.1676C386.132 72.9455 385.457 74.7607 385.225 76.5795C384.953 78.7222 385.633 81.0809 384.979 83.161C384.712 84.0098 384.125 84.6419 383.555 85.3121C382.657 86.3697 381.511 87.5147 381.043 88.8277C380.723 89.7263 380.531 90.6895 380.099 91.5452C379.271 93.184 378.192 94.6756 377.44 96.3602C376 99.5841 376.186 102.015 375.287 105.054C375.065 105.804 374.665 106.516 374.363 107.239C374.068 107.943 373.936 108.592 373.938 109.353C373.943 111.126 374.294 112.926 374.442 114.696C374.638 117.043 374.682 119.414 374.797 121.767C374.875 123.377 374.56 124.897 374.567 126.479C374.575 128.263 375.168 130.114 375.33 131.908C375.514 133.953 375.163 136.207 375.635 138.2C376.178 140.491 378.054 142.287 378.967 144.444C380.643 148.405 380.277 152.451 380.351 156.624C380.386 158.616 380.421 160.624 380.582 162.61C380.742 164.597 381.149 166.763 380.961 168.746C380.716 171.32 378.959 174.246 377.924 176.624L371.434 191.309C371.7 192.336 370.813 192.562 370.339 193.359C369.537 194.708 369.771 196.543 369.122 197.88C368.824 198.494 368.209 198.865 368.011 199.543C368.109 199.851 368.179 200.059 368.113 200.387L367.705 200.515C367.021 201.821 366.708 203.602 366.355 205.031C366.156 205.081 365.957 205.115 365.755 205.149C365.477 205.551 365.586 206.546 365.586 207.05L365.475 207.134L364.918 206.749L364.813 206.864C364.924 207.311 365.018 207.75 365.085 208.205C364.892 208.409 364.688 208.613 364.57 208.869C364.036 210.031 364.602 215.151 364.689 216.688C364.831 219.167 364.683 221.639 364.802 224.114C365.013 228.521 365.563 232.94 366.166 237.309C366.694 241.131 367.229 244.993 367.979 248.78C368.47 251.257 369.174 253.69 369.546 256.189C370.153 260.269 370.352 264.425 371.023 268.5C371.231 269.765 371.647 270.992 371.933 272.242C372.126 273.083 372.068 273.997 372.385 274.801C372.43 274.828 372.473 274.859 372.52 274.885C372.947 275.122 377.658 275.266 378.263 275.131C379.199 276.79 381.58 276.98 382.469 278.948C382.857 279.807 382.96 280.738 382.588 281.622C381.156 285.022 377.226 285.895 373.87 285.912C372.847 285.918 371.462 285.683 370.529 286.059C370.311 286.613 370.412 287.47 370.411 288.066C370.16 288.651 369.869 289.138 369.408 289.586C367.255 291.689 363.807 291.728 360.953 291.713C359.206 291.705 353.657 291.597 352.486 290.441C352.444 290.414 352.397 290.392 352.359 290.357C350.322 288.528 349.781 283.938 349.611 281.348C348.53 282.24 341.676 282.534 339.756 282.724C336.094 283.082 320.714 284.398 318.273 286.431C317.232 287.297 317.151 289.123 316.214 290.222C313.279 293.667 306.898 292.411 302.765 292.577C301.053 292.644 299.354 293.119 297.644 293.278C289.436 294.039 280.976 293.855 272.737 293.646C264.465 293.434 256.046 293.182 247.846 292.041C246.51 291.856 243.783 291.683 242.769 290.86C242.691 290.881 242.62 290.907 242.539 290.911C241.423 290.971 239.792 289.62 239.046 288.917C234.736 284.864 232.576 277.183 232.498 271.461C232.342 260.134 241.63 239.058 247.496 229.159C251.828 221.848 257.191 215.537 262.329 208.797C271.506 196.761 280.406 184.19 291.865 174.074C297.36 169.222 303.444 165.174 309.18 160.624C312.12 158.292 314.619 155.477 317.611 153.218C320.276 151.206 323.895 149.896 326.218 147.514C327.601 146.096 327.541 144.271 327.493 142.445C329.746 138.342 332.16 134.286 335.717 131.104C337.387 129.61 339.548 129.036 340.798 127.04C341.579 125.794 342.447 124.206 342.596 122.742C342.89 119.852 341.951 116.813 341.797 113.909C341.694 111.954 341.629 109.976 341.647 108.018C341.66 106.577 342.05 104.832 341.657 103.441C341.632 103.352 341.604 103.27 341.558 103.189C340.991 102.181 339.507 101.895 338.736 101.075C336.825 99.0401 334.58 95.4961 332.614 93.7906C331.645 92.95 330.345 92.6585 329.263 92.0059C326.798 90.5197 326.108 86.1981 325.051 83.7379C324.482 82.4157 323.707 81.1902 323.103 79.884C322.077 77.6674 321.275 75.0589 320.75 72.6812C320.38 71.0066 320.417 69.0083 321.446 67.5487C322.108 66.6095 323.13 66.0846 324.258 65.8972C327.853 65.3002 331.689 67.7146 334.599 69.4827C335.686 70.1429 336.83 70.7662 337.849 71.5241C339.39 72.6708 340.77 74.026 342.308 75.1792C343.843 76.3299 345.536 77.3145 347.118 78.4104C348.443 78.1827 349.78 78.4321 351.082 78.1737C353.017 77.79 354.78 76.8692 356.768 76.5773C360.679 76.0034 362.054 76.906 366.107 75.1C366.923 73.8859 367.447 72.5036 368.141 71.2232C369.109 69.4356 370.367 67.9087 371.656 66.338C374.665 62.6725 378.441 58.2609 383.197 56.8487ZM331.522 221.683C330.186 222.946 328.375 224.219 327.888 226.011C327.62 226.027 327.459 225.915 327.229 225.798C326.732 226.359 327.024 227.05 326.717 227.617C326.543 227.942 325.847 227.737 325.512 228.249C325.075 228.92 324.82 230.581 324.058 230.888L323.967 230.851C323.768 230.769 323.671 230.714 323.449 230.728C323.378 231.244 323.354 231.749 323.054 232.195C322.748 232.222 322.503 232.093 322.227 231.98C321.931 232.101 321.818 232.169 321.698 232.473C321.528 232.897 321.581 233.322 321.249 233.666L320.727 233.686C320.101 234.57 320.314 235.814 319.383 237.154C319.44 239.47 319.171 241.968 318.777 244.255L318.651 244.367L318.423 244.144C317.911 244.574 317.796 245.586 317.361 246.137C316.879 246.748 316.056 247.043 315.516 247.595C315.494 247.616 315.471 247.64 315.456 247.667C315.256 248.029 315.34 248.553 315.04 248.819C314.911 248.592 314.79 248.362 314.677 248.127C314.352 248.221 314.267 248.422 314.105 248.714C313.685 249.471 313.694 250.424 313.262 251.169L313.106 251.2L312.772 250.809C312.413 251.398 312.333 252.1 311.961 252.669C310.417 255.034 308.433 256.564 307.627 259.411C307.156 261.075 307.492 263.515 306.816 264.957C306.774 264.912 306.731 264.867 306.69 264.82C306.474 264.571 306.41 264.237 306.326 263.93L306.215 263.847L306.258 265.485C305.566 265.209 305.339 264.757 305.052 264.112C305.073 265.08 305.133 266.023 305.341 266.974C305.299 266.968 305.255 266.964 305.214 266.952C304.851 266.852 304.492 266.555 304.181 266.348L304.067 266.42C304.13 266.745 304.217 267.066 304.171 267.398L303.841 267.774C304.078 268.965 305.066 269.932 306.059 270.589C307.277 271.393 309.338 271.905 309.64 273.498C310.008 275.442 308.492 277.719 308.647 278.612C309.189 278.921 310.246 278.627 310.823 278.482C311.485 278.316 312.404 278.15 312.913 277.71C313.854 277.845 318.818 275.949 320.871 275.91C322.259 275.883 323.652 276.205 325.037 276.119C326.629 276.021 328.197 275.526 329.789 275.483C331.621 275.436 333.463 275.654 335.295 275.675C337.314 275.701 346.589 275.534 347.678 274.75C347.897 274.591 347.884 274.47 347.964 274.227C347.755 272.684 346.301 271.827 345.744 270.473L345.715 270.264C345.376 267.652 345.848 264.947 345.256 262.365C344.835 260.526 343.681 258.988 343.124 257.208C342.455 255.07 342.09 252.847 341.477 250.695C340.997 249.005 340.28 247.37 339.712 245.705C339.203 244.214 338.83 242.683 338.336 241.186L334.4 228.959C333.742 226.899 332.821 224.814 332.547 222.666C332.217 222.344 331.888 221.963 331.522 221.683ZM358.63 266.097C358.776 268.656 358.625 271.26 358.857 273.801C359.462 274.345 360.519 274.515 361.325 274.492C361.648 274.482 361.919 274.447 362.166 274.227L362.362 274.051C362.41 272.551 361.246 267.621 360.335 266.512C360.197 266.342 358.977 266.26 358.63 266.097Z" fill="#E4B14D"/>
</svg>
