<svg width="2096" height="460" viewBox="0 0 2096 460" fill="none" xmlns="http://www.w3.org/2000/svg">
<path d="M220.245 458.731C190.18 458.857 161.933 453.453 135.503 442.52C109.073 431.28 85.8454 415.885 65.8222 396.335C46.1057 376.783 30.5172 353.993 19.0567 327.964C7.59629 301.935 1.80357 274.042 1.67858 244.284C1.55359 214.526 7.11179 186.585 18.3532 160.461C29.5946 134.337 44.991 111.417 64.5426 91.7004C84.4009 71.9826 107.499 56.5463 133.835 45.3913C160.171 33.9296 188.371 28.1356 218.436 28.0093C248.807 27.8817 277.055 33.4386 303.179 44.68C329.608 55.6133 352.835 70.8551 372.858 90.4054C392.881 109.956 408.47 132.746 419.623 158.776C431.084 184.805 436.877 212.698 437.002 242.456C437.127 272.214 431.568 300.154 420.327 326.279C409.392 352.401 393.996 375.322 374.138 395.039C354.279 414.757 331.182 430.347 304.847 441.809C278.817 452.962 250.616 458.603 220.245 458.731ZM219.972 393.846C247.582 393.73 272.403 386.877 294.435 373.286C316.773 359.693 334.337 341.519 347.127 318.763C360.222 295.699 366.711 270.362 366.595 242.751C366.478 214.834 359.776 189.553 346.489 166.906C333.509 144.258 315.793 126.232 293.341 112.828C271.196 99.4224 246.318 92.7776 218.708 92.8936C191.098 93.0096 166.123 99.8638 143.785 113.456C121.753 127.047 104.19 145.222 91.0933 167.979C78.3038 190.735 71.9677 216.071 72.085 243.988C72.2009 271.599 78.7497 296.881 91.7311 319.836C105.018 342.482 122.734 360.508 144.879 373.914C167.331 387.318 192.362 393.962 219.972 393.846ZM501.519 449.266L500.359 173.163L559.261 172.915L559.466 221.693C569.216 205.7 581.741 193.069 597.042 183.801C612.342 174.533 630.576 169.854 651.744 169.766L666.723 229.986C660.887 228.17 654.287 227.277 646.924 227.308C622.382 227.411 602.627 235.318 587.66 251.027C573.001 266.734 565.732 289.16 565.854 318.304L566.403 448.993L501.519 449.266ZM711.645 448.383L710.486 172.28L775.37 172.007L776.53 448.111L711.645 448.383ZM742.97 127.506C732.233 127.551 723.167 123.908 715.774 116.576C708.379 108.937 704.659 99.9027 704.616 89.4721C704.569 78.428 708.212 69.3624 715.546 62.2755C723.184 54.8805 732.219 51.1612 742.649 51.1173C753.694 51.071 762.759 54.7143 769.846 62.0474C777.24 69.3793 780.959 78.4139 781.004 89.1512C781.049 99.8886 777.406 108.954 770.074 116.348C762.742 123.741 753.708 127.461 742.97 127.506ZM988.772 454.582C959.014 454.707 932.45 448.376 909.081 435.589C885.711 422.802 867.384 405.239 854.098 382.9C841.119 360.559 834.57 335.276 834.452 307.052C834.338 280.056 840.526 255.793 853.014 234.266C865.808 212.737 882.916 195.638 904.338 182.97C926.067 170.301 949.97 163.911 976.046 163.802C1002.43 163.691 1026.23 169.727 1047.45 181.909C1068.98 194.09 1086.07 210.738 1098.74 231.853C1111.41 252.661 1117.79 276.411 1117.91 303.101L1118.01 327.49L943.604 328.222C935.934 328.255 928.263 327.98 920.591 327.399C912.918 326.51 905.244 325.469 897.569 324.274C901.339 345.427 911.537 363.024 928.163 377.066C945.095 391.107 965.679 398.077 989.915 397.975C1007.4 397.902 1023.34 394.153 1037.73 386.73C1052.11 379 1063.88 369.133 1073.04 357.13L1088.95 421.489C1075.5 432.283 1060.19 440.477 1043.04 446.071C1025.88 451.665 1007.79 454.502 988.772 454.582ZM896.014 282.864C911.954 279.729 927.747 278.129 943.393 278.064L1013.34 277.77C1021.01 277.737 1028.37 278.013 1035.43 278.597C1042.8 279.18 1049.86 279.917 1056.61 280.809C1051.93 262.115 1042.2 246.97 1027.43 235.374C1012.96 223.47 995.753 217.56 975.812 217.644C956.485 217.725 939.484 223.932 924.81 236.265C910.136 248.598 900.538 264.131 896.014 282.864ZM1173.87 446.442L1172.71 170.338L1231.62 170.091L1231.77 207.365C1241.84 192.904 1254.37 181.807 1269.37 174.074C1284.67 166.34 1301.22 162.436 1319.02 162.361C1338.65 162.279 1356.93 166.957 1373.84 176.396C1390.75 185.836 1404.46 199.584 1414.97 217.64C1425.47 235.696 1430.78 257.609 1430.89 283.379L1431.57 445.359L1366.69 445.632L1366.04 292.395C1365.97 273.988 1360.22 257.599 1348.81 243.228C1337.7 228.855 1322.03 221.712 1301.78 221.797C1285.21 221.866 1270.36 227.758 1257.22 239.471C1244.38 251.183 1238.01 268.543 1238.11 291.551L1238.76 446.169L1173.87 446.442ZM1523.82 444.972L1522.88 221.328L1465.82 221.568L1465.6 169.108L1524.04 168.863L1523.65 76.8283L1585.78 76.5673L1586.16 168.602L1647.83 168.343L1648.05 220.802L1587.77 221.056L1588.71 444.699L1523.82 444.972ZM1806.15 449.308C1780.99 449.414 1757.95 443.068 1737.04 430.271C1716.12 417.474 1699.33 400.211 1686.66 378.482C1674.3 356.752 1668.06 332.696 1667.95 306.312C1667.84 279.929 1673.87 255.821 1686.05 233.988C1698.54 212.154 1715.19 194.75 1735.99 181.778C1756.8 168.805 1779.78 162.266 1804.94 162.161C1823.35 162.083 1840.39 165.386 1856.06 172.07C1872.04 178.445 1885.73 187.591 1897.13 199.508L1897 167.296L1954.52 167.055L1955.68 443.158L1898.16 443.4L1898.02 411.188C1886.72 422.893 1873.11 432.154 1857.18 438.97C1841.56 445.785 1824.55 449.231 1806.15 449.308ZM1814.18 391.292C1829.52 391.227 1843.47 387.334 1856.01 379.612C1868.86 371.888 1878.95 361.568 1886.25 348.652C1893.87 335.735 1897.64 321.301 1897.58 305.348C1897.51 289.702 1893.62 275.453 1885.89 262.6C1878.47 249.44 1868.46 239.051 1855.85 231.434C1843.24 223.817 1829.11 220.042 1813.47 220.108C1798.13 220.172 1784.03 224.066 1771.18 231.79C1758.63 239.512 1748.55 249.832 1740.94 262.749C1733.63 275.665 1730.01 290.099 1730.07 306.051C1730.14 321.697 1733.88 336.101 1741.3 349.261C1749.02 362.114 1759.19 372.349 1771.8 379.965C1784.41 387.582 1798.54 391.357 1814.18 391.292ZM2030.47 442.844L2028.61 1.07839L2093.5 0.805861L2095.35 442.571L2030.47 442.844Z" fill="#E7E7E7" fill-opacity="0.08"/>
</svg>
