<svg width="24" height="25" viewBox="0 0 24 25" fill="none" xmlns="http://www.w3.org/2000/svg">
<path d="M22.9855 22.0354L18.5928 17.6556C20.0101 15.85 20.7791 13.6203 20.7762 11.3249C20.7762 9.28062 20.17 7.28229 19.0343 5.58257C17.8986 3.88284 16.2844 2.55807 14.3957 1.77577C12.5071 0.993477 10.4289 0.788792 8.42393 1.1876C6.41897 1.58642 4.5773 2.57081 3.1318 4.01631C1.6863 5.4618 0.701909 7.30348 0.303097 9.30844C-0.095714 11.3134 0.108971 13.3916 0.891267 15.2802C1.67356 17.1689 2.99834 18.7831 4.69806 19.9188C6.39778 21.0545 8.39612 21.6607 10.4404 21.6607C12.7358 21.6636 14.9655 20.8946 16.7711 19.4773L21.1509 23.87C21.271 23.9911 21.4139 24.0872 21.5713 24.1528C21.7288 24.2184 21.8976 24.2522 22.0682 24.2522C22.2388 24.2522 22.4076 24.2184 22.5651 24.1528C22.7225 24.0872 22.8654 23.9911 22.9855 23.87C23.1066 23.7499 23.2027 23.607 23.2683 23.4496C23.3339 23.2921 23.3677 23.1233 23.3677 22.9527C23.3677 22.7822 23.3339 22.6133 23.2683 22.4558C23.2027 22.2984 23.1066 22.1555 22.9855 22.0354ZM2.68846 11.3249C2.68846 9.79168 3.1431 8.29293 3.99489 7.01814C4.84668 5.74335 6.05736 4.74977 7.47384 4.16305C8.89031 3.57632 10.449 3.42281 11.9527 3.72192C13.4564 4.02103 14.8377 4.75932 15.9218 5.84345C17.0059 6.92757 17.7442 8.30882 18.0433 9.81254C18.3424 11.3163 18.1889 12.8749 17.6022 14.2914C17.0155 15.7079 16.0219 16.9185 14.7471 17.7703C13.4723 18.6221 11.9735 19.0768 10.4404 19.0768C8.38443 19.0768 6.4127 18.26 4.95894 16.8063C3.50518 15.3525 2.68846 13.3808 2.68846 11.3249Z" fill="#0A0A0C"/>
</svg>
